HIERARCHY
ROOT Hips
{
    OFFSET   0.000000   0.000000   0.000000
    CHANNELS 6 Xposition Yposition Zposition Zrotation Xrotation Yrotation
    JOINT Chest
    {
        OFFSET   0.000000   8.007230   0.000000
        CHANNELS 3 Zrotation Xrotation Yrotation
        JOINT Chest2
        {
            OFFSET   0.000000  22.077100   0.000000
            CHANNELS 3 Zrotation Xrotation Yrotation
            JOINT Neck
            {
                OFFSET   0.000000  23.254800  -0.000021
                CHANNELS 3 Zrotation Xrotation Yrotation
                JOINT Head
                {
                    OFFSET   0.000000  14.370000   1.956610
                    CHANNELS 3 Zrotation Xrotation Yrotation
                    End Site
                    {
                        OFFSET   0.000000  19.566000   0.000000
                    }
                }
            }
            JOINT LeftCollar
            {
                OFFSET   3.911900  19.017000  -0.467063
                CHANNELS 3 Zrotation Xrotation Yrotation
                JOINT LeftShoulder
                {
                    OFFSET  10.383700   0.000000   0.000000
                    CHANNELS 3 Zrotation Xrotation Yrotation
                    JOINT LeftElbow
                    {
                        OFFSET  26.662100   0.001529   0.000325
                        CHANNELS 3 Zrotation Xrotation Yrotation
                        JOINT LeftWrist
                        {
                            OFFSET  28.869000  -0.000011  -0.000096
                            CHANNELS 3 Zrotation Xrotation Yrotation
                            JOINT LeftFinger0
                            {
                                OFFSET   2.044650  -2.323460   3.252850
                                CHANNELS 3 Zrotation Xrotation Yrotation
                                JOINT LeftFinger01
                                {
                                    OFFSET   3.088130   0.000000   0.000000
                                    CHANNELS 3 Zrotation Xrotation Yrotation
                                    JOINT LeftFinger02
                                    {
                                        OFFSET   2.639460   0.000000   0.000000
                                        CHANNELS 3 Zrotation Xrotation Yrotation
                                        End Site
                                        {
                                            OFFSET   2.582190   0.000000   0.000000
                                        }
                                    }
                                }
                            }
                            JOINT LeftFinger1
                            {
                                OFFSET   8.364480   0.000000   3.252850
                                CHANNELS 3 Zrotation Xrotation Yrotation
                                JOINT LeftFinger11
                                {
                                    OFFSET   4.646930   0.000000   0.000000
                                    CHANNELS 3 Zrotation Xrotation Yrotation
                                    JOINT LeftFinger12
                                    {
                                        OFFSET   2.323460   0.000000   0.000000
                                        CHANNELS 3 Zrotation Xrotation Yrotation
                                        End Site
                                        {
                                            OFFSET   2.273050   0.000000   0.000000
                                        }
                                    }
                                }
                            }
                            JOINT LeftFinger2
                            {
                                OFFSET   8.364480   0.000016   1.078090
                                CHANNELS 3 Zrotation Xrotation Yrotation
                                JOINT LeftFinger21
                                {
                                    OFFSET   5.111620   0.000000   0.000000
                                    CHANNELS 3 Zrotation Xrotation Yrotation
                                    JOINT LeftFinger22
                                    {
                                        OFFSET   2.788160   0.000017   0.000000
                                        CHANNELS 3 Zrotation Xrotation Yrotation
                                        End Site
                                        {
                                            OFFSET   2.727660   0.000000   0.000000
                                        }
                                    }
                                }
                            }
                            JOINT LeftFinger3
                            {
                                OFFSET   7.899780   0.000015  -1.078090
                                CHANNELS 3 Zrotation Xrotation Yrotation
                                JOINT LeftFinger31
                                {
                                    OFFSET   4.646920   0.000000   0.000000
                                    CHANNELS 3 Zrotation Xrotation Yrotation
                                    JOINT LeftFinger32
                                    {
                                        OFFSET   2.323470   0.000000   0.000000
                                        CHANNELS 3 Zrotation Xrotation Yrotation
                                        End Site
                                        {
                                            OFFSET   2.273050   0.000000   0.000000
                                        }
                                    }
                                }
                            }
                            JOINT LeftFinger4
                            {
                                OFFSET   7.435090   0.000000  -3.252850
                                CHANNELS 3 Zrotation Xrotation Yrotation
                                JOINT LeftFinger41
                                {
                                    OFFSET   3.717550   0.000000   0.000000
                                    CHANNELS 3 Zrotation Xrotation Yrotation
                                    JOINT LeftFinger42
                                    {
                                        OFFSET   1.858760   0.000000   0.000000
                                        CHANNELS 3 Zrotation Xrotation Yrotation
                                        End Site
                                        {
                                            OFFSET   1.818440   0.000000   0.000000
                                        }
                                    }
                                }
                            }
                        }
                    }
                }
            }
            JOINT RightCollar
            {
                OFFSET  -3.911900  19.017000  -0.467062
                CHANNELS 3 Zrotation Xrotation Yrotation
                JOINT RightShoulder
                {
                    OFFSET -10.383700   0.000015   0.000000
                    CHANNELS 3 Zrotation Xrotation Yrotation
                    JOINT RightElbow
                    {
                        OFFSET -26.662100   0.001341   0.000385
                        CHANNELS 3 Zrotation Xrotation Yrotation
                        JOINT RightWrist
                        {
                            OFFSET -28.869000   0.000025  -0.000080
                            CHANNELS 3 Zrotation Xrotation Yrotation
                            JOINT RightFinger0
                            {
                                OFFSET  -2.044650  -2.323490   3.252850
                                CHANNELS 3 Zrotation Xrotation Yrotation
                                JOINT RightFinger01
                                {
                                    OFFSET  -3.088130   0.000000   0.000000
                                    CHANNELS 3 Zrotation Xrotation Yrotation
                                    JOINT RightFinger02
                                    {
                                        OFFSET  -2.639460   0.000000   0.000000
                                        CHANNELS 3 Zrotation Xrotation Yrotation
                                        End Site
                                        {
                                            OFFSET  -2.582190   0.000000   0.000000
                                        }
                                    }
                                }
                            }
                            JOINT RightFinger1
                            {
                                OFFSET  -8.364480   0.000000   3.252850
                                CHANNELS 3 Zrotation Xrotation Yrotation
                                JOINT RightFinger11
                                {
                                    OFFSET  -4.646930   0.000000   0.000000
                                    CHANNELS 3 Zrotation Xrotation Yrotation
                                    JOINT RightFinger12
                                    {
                                        OFFSET  -2.323470   0.000000   0.000000
                                        CHANNELS 3 Zrotation Xrotation Yrotation
                                        End Site
                                        {
                                            OFFSET  -2.273050   0.000000   0.000000
                                        }
                                    }
                                }
                            }
                            JOINT RightFinger2
                            {
                                OFFSET  -8.364480   0.000000   1.078090
                                CHANNELS 3 Zrotation Xrotation Yrotation
                                JOINT RightFinger21
                                {
                                    OFFSET  -5.111610   0.000000   0.000000
                                    CHANNELS 3 Zrotation Xrotation Yrotation
                                    JOINT RightFinger22
                                    {
                                        OFFSET  -2.788160   0.000000   0.000000
                                        CHANNELS 3 Zrotation Xrotation Yrotation
                                        End Site
                                        {
                                            OFFSET  -2.727660   0.000000   0.000000
                                        }
                                    }
                                }
                            }
                            JOINT RightFinger3
                            {
                                OFFSET  -7.899780   0.000000  -1.078090
                                CHANNELS 3 Zrotation Xrotation Yrotation
                                JOINT RightFinger31
                                {
                                    OFFSET  -4.646920   0.000000   0.000000
                                    CHANNELS 3 Zrotation Xrotation Yrotation
                                    JOINT RightFinger32
                                    {
                                        OFFSET  -2.323470   0.000000   0.000000
                                        CHANNELS 3 Zrotation Xrotation Yrotation
                                        End Site
                                        {
                                            OFFSET  -2.273050   0.000000   0.000000
                                        }
                                    }
                                }
                            }
                            JOINT RightFinger4
                            {
                                OFFSET  -7.435090   0.000000  -3.252850
                                CHANNELS 3 Zrotation Xrotation Yrotation
                                JOINT RightFinger41
                                {
                                    OFFSET  -3.717550   0.000000   0.000000
                                    CHANNELS 3 Zrotation Xrotation Yrotation
                                    JOINT RightFinger42
                                    {
                                        OFFSET  -1.858770   0.000000   0.000000
                                        CHANNELS 3 Zrotation Xrotation Yrotation
                                        End Site
                                        {
                                            OFFSET  -1.818440   0.000000   0.000000
                                        }
                                    }
                                }
                            }
                        }
                    }
                }
            }
        }
    }
    JOINT LeftHip
    {
        OFFSET   9.783010   0.000000   0.000000
        CHANNELS 3 Zrotation Xrotation Yrotation
        JOINT LeftKnee
        {
            OFFSET   0.000070 -41.789100   0.000028
            CHANNELS 3 Zrotation Xrotation Yrotation
            JOINT LeftAnkle
            {
                OFFSET   0.000087 -41.133200  -0.000100
                CHANNELS 3 Zrotation Xrotation Yrotation
                JOINT LeftToe
                {
                    OFFSET   0.000000  -6.358960  14.674500
                    CHANNELS 3 Zrotation Xrotation Yrotation
                    End Site
                    {
                        OFFSET   0.000000   0.000000   3.913200
                    }
                }
            }
        }
    }
    JOINT RightHip
    {
        OFFSET  -9.783020   0.000000   0.000000
        CHANNELS 3 Zrotation Xrotation Yrotation
        JOINT RightKnee
        {
            OFFSET   0.000044 -41.789100  -0.000870
            CHANNELS 3 Zrotation Xrotation Yrotation
            JOINT RightAnkle
            {
                OFFSET  -0.000090 -41.133200  -0.000245
                CHANNELS 3 Zrotation Xrotation Yrotation
                JOINT RightToe
                {
                    OFFSET   0.000000  -6.358960  14.674500
                    CHANNELS 3 Zrotation Xrotation Yrotation
                    End Site
                    {
                        OFFSET   0.000000   0.000000   3.913200
                    }
                }
            }
        }
    }
}
MOTION
Frames: 4
Frame Time:   0.016667
 -0.521388  90.030600  -1.654040  -1.378060  -2.728700  -2.017530  -0.133427   2.913080  -0.304804  -0.251799   5.826810  -0.603980   2.600860  -0.761110   0.028878   4.281590  -1.532980   8.741080  -5.315420  -2.655760   3.821290 -70.685500  24.540300   0.167122  -3.728930  -5.995790 -15.692900  14.060400   0.743242  12.059400  39.063600  26.086100 -61.794200 -24.534100   0.003183   0.001521  -7.267060   0.016228   0.011518 -29.817800   6.854480 -11.763300 -24.974800   0.004285   0.006220 -17.482400   0.006634   0.004453 -28.668800   2.880080  -5.247390 -42.458200   0.001066  -0.004074 -28.277200   0.005880  -0.001298 -27.083700   2.729510  -5.325890 -27.873800  -0.002340  -0.005104 -18.564000   0.010326  -0.006856 -31.038100   1.074550  -1.765320 -46.582400   0.003084  -0.008508 -31.023900   0.002036   0.000712  12.192200   0.449215   9.885490  66.008600  13.800300  -5.896070   2.321840  -5.584090  13.355300 -16.860500 -22.254600   3.091780 -31.584500  21.577900  66.805000  29.948500   0.000283  -0.010008   9.974240   0.007854   0.000306  36.979000   0.473355   0.628725  30.257700  -0.000803   0.007196  21.180400  -0.014751   0.014784  32.205200  -2.949320  -4.670000  48.488300   0.000589   0.000409  32.293200  -0.000552  -0.001603  34.788600  -3.672720  -5.268060  52.436400   0.000681  -0.006482  34.922600  -0.000327  -0.000580  50.996500  -4.996520  -4.034770  76.759000   0.002690   0.000537  51.121500   0.000929  -0.001146   1.364530   2.340630   1.065130   0.647745   2.198320  10.633500  -5.459280  -3.536880   3.765010  -0.000000   0.000000  -0.000000   3.854550   0.339248  -4.880340  -2.204880   6.013020  -4.070920 -10.130400  -0.671463   3.122430  -0.000000   0.000000   0.000000
 -0.529189  90.030600  -1.642480  -1.378270  -2.738390  -2.010050  -0.129459   2.923410  -0.308915  -0.243580   5.847480  -0.612408   2.604050  -0.758792   0.028863   4.283950  -1.528870   8.740910  -5.315140  -2.653950   3.821670 -70.674500  24.596700   0.140764  -3.749070  -6.032880 -15.707200  14.054500   0.743267  12.049800  39.081400  26.091900 -61.770400 -24.519500   0.003194   0.001519  -7.259780   0.016228   0.011535 -29.790100   6.852480 -11.773200 -24.952500   0.004286   0.006226 -17.466800   0.006631   0.004460 -28.668800   2.879870  -5.247160 -42.426900   0.001065  -0.004010 -28.256400   0.005840  -0.001270 -27.077200   2.729400  -5.325650 -27.846200  -0.002342  -0.005057 -18.545500   0.010326  -0.006818 -31.023400   1.074450  -1.770870 -46.560300   0.003093  -0.008474 -31.009100   0.002042   0.000719  12.192000   0.449351   9.885450  65.982100  13.813100  -5.880290   2.326690  -5.599460  13.355700 -16.879900 -22.296300   3.088210 -31.562500  21.549800  66.768600  30.017400   0.000275  -0.010011  10.008700   0.007858   0.000302  37.028500   0.436679   0.579093  30.297900  -0.000783   0.007206  21.208600  -0.014750   0.014788  32.236000  -2.979150  -4.711610  48.538100   0.000587   0.000398  32.326400  -0.000558  -0.001616  34.814300  -3.697800  -5.298700  52.478200   0.000668  -0.006494  34.950400  -0.000333  -0.000590  51.029500  -5.029650  -4.056580  76.811600   0.002690   0.000528  51.156500   0.000905  -0.001150   1.364190   2.348610   1.065210   0.646589   2.207230  10.633500  -5.459290  -3.543130   3.756570  -0.000000   0.000000  -0.000000   3.856520   0.360461  -4.883380  -2.199430   6.005800  -4.080450 -10.136400  -0.677334   3.122420  -0.000000   0.000000  -0.000000
 -0.541728  90.030600  -1.623580  -1.378430  -2.754350  -1.997160  -0.123098   2.939450  -0.315039  -0.230432   5.879570  -0.624987   2.609910  -0.751673   0.028848   4.289830  -1.515150   8.740710  -5.312670  -2.650090   3.823100 -70.656800  24.680600   0.098104  -3.774810  -6.086750 -15.729100  14.048700   0.743282  12.040300  39.108500  26.101500 -61.724500 -24.505000   0.003211   0.001518  -7.252510   0.016234   0.011575 -29.749700   6.848780 -11.785400 -24.919700   0.004293   0.006239 -17.443800   0.006621   0.004473 -28.668900   2.879660  -5.246930 -42.380800   0.001061  -0.003876 -28.225700   0.005750  -0.001213 -27.067700   2.729300  -5.325420 -27.804500  -0.002345  -0.004955 -18.517700   0.010320  -0.006736 -30.999300   1.074350  -1.779900 -46.524200   0.003117  -0.008395 -30.985100   0.002059   0.000732  12.191700   0.449487   9.885410  65.943900  13.825900  -5.862870   2.336400  -5.623270  13.356300 -16.899300 -22.338000   3.084650 -31.538600  21.525800  66.727000  30.124200   0.000253  -0.010018  10.062100   0.007863   0.000299  37.084100   0.386798   0.511662  30.343000  -0.000731   0.007227  21.240100  -0.014746   0.014798  32.273600  -3.020410  -4.769470  48.599100   0.000582   0.000371  32.367000  -0.000573  -0.001650  34.849200  -3.733330  -5.342400  52.535200   0.000636  -0.006525  34.988400  -0.000348  -0.000614  51.074300  -5.076650  -4.087790  76.883300   0.002690   0.000506  51.204300   0.000843  -0.001159   1.363730   2.362690   1.065290   0.645511   2.223200  10.633500  -5.459200  -3.555380   3.743580   0.000000   0.000000  -0.000000   3.859620   0.394898  -4.886440  -2.189530   5.993690  -4.096140 -10.146000  -0.686143   3.122360  -0.000000   0.000000  -0.000000
 -0.550721  90.030700  -1.609220  -1.376960  -2.767100  -1.986090  -0.118307   2.949910  -0.318449  -0.220601   5.900450  -0.632054   2.615560  -0.738951   0.028869   4.298620  -1.489300   8.742390  -5.305380  -2.644500   3.826920 -70.644700  24.727000   0.065801  -3.783600  -6.112800 -15.743000  14.064400   0.734562  12.040800  39.123400  26.105900 -61.666900 -24.508900   0.003227   0.001543  -7.254450   0.016262   0.011629 -29.725500   6.845530 -11.788000 -24.899800   0.004307   0.006257 -17.429900   0.006604   0.004485 -28.668800   2.879710  -5.247990 -42.353000   0.001052  -0.003692 -28.207200   0.005620  -0.001136 -27.061800   2.729760  -5.326540 -27.776600  -0.002349  -0.004811 -18.498800   0.010307  -0.006623 -30.979900   1.075090  -1.787190 -46.494900   0.003158  -0.008278 -30.965600   0.002084   0.000743  12.191800   0.449435   9.888080  65.921900  13.821400  -5.860840   2.349120  -5.641530  13.356500 -16.886900 -22.330400   3.088850 -31.525600  21.536800  66.715300  30.191400   0.000218  -0.010029  10.095700   0.007862   0.000310  37.088300   0.370653   0.490093  30.346300  -0.000648   0.007251  21.242400  -0.014741   0.014814  32.279500  -3.034300  -4.789970  48.609300   0.000576   0.000329  32.373800  -0.000597  -0.001702  34.858300  -3.748150  -5.361690  52.550800   0.000592  -0.006573  34.998800  -0.000373  -0.000651  51.085800  -5.096430  -4.102140  76.902500   0.002692   0.000471  51.217100   0.000745  -0.001173   1.363610   2.376470   1.064960   0.646545   2.238250  10.633600  -5.462520  -3.569580   3.735670   0.000000   0.000000  -0.000000   3.859870   0.420848  -4.883070  -2.179910   5.983730  -4.109410 -10.153100  -0.691135   3.118300  -0.000000   0.000000   0.000000
